HIERARCHY
ROOT hip
{
	OFFSET 0.000000 0.000000 0.000000 
	CHANNELS 6 Xposition Yposition Zposition Xrotation Zrotation Yrotation
	JOINT abdomen
	{
		OFFSET 0.000000 3.402643 0.000000 
		CHANNELS 3 Xrotation Zrotation Yrotation
		JOINT chest
		{
			OFFSET 0.000000 8.438565 -0.680529 
			CHANNELS 3 Xrotation Zrotation Yrotation
			JOINT neck
			{
				OFFSET 0.000000 10.207942 -0.272212 
				CHANNELS 3 Xrotation Zrotation Yrotation
				JOINT head
				{
					OFFSET 0.000000 3.130431 0.000000 
					CHANNELS 3 Xrotation Zrotation Yrotation
					End Site
					{
						OFFSET 0.000000 3.130435 0.000000 
					}
				}
			}
			JOINT lCollar
			{
				OFFSET 3.470700 6.669187 -0.816635 
				CHANNELS 3 Yrotation Zrotation Xrotation
				JOINT lShldr
				{
					OFFSET 3.198488 0.000000 0.000000 
					CHANNELS 3 Zrotation Yrotation Xrotation
					JOINT lForeArm
					{
						OFFSET 10.139888 0.000000 0.000000 
						CHANNELS 3 Yrotation Zrotation Xrotation
						JOINT lHand
						{
							OFFSET 8.370511 0.000000 0.000000 
							CHANNELS 3 Zrotation Yrotation Xrotation
							End Site
							{
								OFFSET 4.083176 0.000000 0.000000 
							}
						}
					}
				}
			}
			JOINT rCollar
			{
				OFFSET -3.470700 6.669187 -0.816635 
				CHANNELS 3 Yrotation Zrotation Xrotation
				JOINT rShldr
				{
					OFFSET -3.198488 0.000000 0.000000 
					CHANNELS 3 Zrotation Yrotation Xrotation
					JOINT rForeArm
					{
						OFFSET -10.139888 0.000000 0.000000 
						CHANNELS 3 Yrotation Zrotation Xrotation
						JOINT rHand
						{
							OFFSET -8.370511 0.000000 0.000000 
							CHANNELS 3 Zrotation Yrotation Xrotation
							End Site
							{
								OFFSET -4.083176 0.000000 0.000000 
							}
						}
					}
				}
			}
		}
	}
	JOINT lThigh
	{
		OFFSET 5.308129 -1.633274 1.361059 
		CHANNELS 3 Xrotation Zrotation Yrotation
		JOINT lShin
		{
			OFFSET -2.041588 -20.007561 0.000000 
			CHANNELS 3 Xrotation Zrotation Yrotation
			JOINT lFoot
			{
				OFFSET 0.000000 -19.190928 -1.224953 
				CHANNELS 3 Xrotation Yrotation Zrotation
				End Site
				{
					OFFSET 0.000000 -2.449906 4.627600 
				}
			}
		}
	}
	JOINT rThigh
	{
		OFFSET -5.308129 -1.633274 1.361059 
		CHANNELS 3 Xrotation Zrotation Yrotation
		JOINT rShin
		{
			OFFSET 2.041588 -20.007561 0.000000 
			CHANNELS 3 Xrotation Zrotation Yrotation
			JOINT rFoot
			{
				OFFSET 0.000000 -19.190928 -1.224953 
				CHANNELS 3 Xrotation Yrotation Zrotation
				End Site
				{
					OFFSET 0.000000 -2.449906 4.627600 
				}
			}
		}
	}
}
MOTION
Frames: 16
Frame Time: 0.011111
-5.571940 49.668137 14.947235 1.385570 1.990368 -101.127213 41.959293 4.978887 -7.359603 -24.823978 -3.831006 -2.736699 -9.257375 9.354103 7.008820 7.254531 -12.745962 15.821593 -4.639579 -2.584670 0.232935 -60.056782 -21.487686 20.241724 -84.531776 3.410724 25.965517 8.524705 12.647240 -35.081429 2.212703 6.201041 0.507338 56.991249 10.096918 -3.911731 86.328690 -1.385233 30.535385 -8.534408 -12.637552 83.255714 -22.321100 9.929475 10.704287 53.964363 -3.393075 -7.596039 -14.298712 -16.522322 -7.969401 -19.868555 2.313534 4.930008 47.700943 3.993274 6.955521 -26.866741 3.085213 3.589782 
-5.337440 49.662601 14.863838 1.858589 2.412601 -100.245850 42.350098 5.898805 -7.655211 -25.165207 -3.764533 -2.925346 -9.079195 9.336720 7.187469 6.707173 -13.038959 16.200314 -4.639579 -2.584670 0.232935 -59.203506 -22.326118 20.698664 -84.725037 3.213796 26.182341 8.524705 12.647240 -35.481831 2.212703 6.201041 0.507338 57.100620 10.425154 -3.916347 86.329659 -1.385800 30.545122 -8.534408 -12.637552 83.177589 -24.293793 10.857354 10.184756 55.620434 -3.234984 -7.741952 -13.064086 -16.663944 -7.709766 -20.248110 2.635477 3.856706 47.346367 4.032594 6.922539 -26.614792 3.240370 3.694750 
-5.098635 49.708145 14.793057 2.157829 3.004939 -99.173462 42.504261 6.744770 -8.152288 -25.368885 -3.519925 -3.166086 -8.958616 9.264776 7.345494 6.094325 -13.358263 16.540268 -4.639579 -2.584670 0.232935 -58.313007 -23.632671 21.028111 -84.897987 3.026964 26.397739 8.524705 12.647240 -35.872448 2.212703 6.201041 0.507338 57.049519 10.657250 -3.840884 86.335228 -1.397050 30.573671 -8.534408 -12.637552 83.245949 -26.291735 11.440727 9.357173 56.785339 -3.090906 -7.869760 -11.755579 -17.191704 -7.526685 -20.766550 2.616311 2.557731 46.765900 4.081503 6.863957 -26.103870 3.455203 3.826444 
-4.885987 49.812775 14.733972 2.411079 3.593778 -98.355209 42.597645 7.309843 -8.451710 -25.455502 -3.214688 -3.331407 -8.908331 9.241697 7.435694 5.644525 -13.620538 16.760155 -4.639579 -2.584670 0.232935 -57.330704 -25.177233 21.365778 -85.084740 2.814162 26.644009 8.524705 12.647240 -35.970100 2.212703 6.201041 0.507338 56.953964 10.808866 -3.780266 86.343933 -1.419073 30.621292 -8.534408 -12.637552 83.431496 -27.973701 11.911224 8.640729 57.832542 -3.001633 -7.957145 -10.921294 -17.950684 -7.518262 -21.178133 2.568267 1.380390 46.048309 4.140121 6.768631 -25.507967 3.738016 3.984440 
-4.693650 49.967262 14.680425 2.581885 4.042906 -97.803650 42.358517 7.470614 -8.814216 -25.815563 -2.834166 -3.432642 -7.042052 9.334329 7.666845 4.195562 -14.070280 17.082315 -4.639579 -2.584670 0.232935 -56.371464 -26.037889 21.825140 -85.304939 2.542894 26.963408 8.524705 12.647240 -35.774796 2.212703 6.201041 0.507338 56.781754 10.193880 -3.311297 86.353134 -1.431862 30.679287 -8.534408 -12.637552 83.636581 -29.061031 12.235724 8.206764 58.654392 -2.894302 -8.034156 -10.422863 -18.708227 -7.585041 -21.356558 2.461024 0.466292 45.122753 4.221519 6.663587 -24.838614 4.065968 4.140831 
-4.505312 50.148827 14.631803 2.664969 4.484892 -97.255058 42.853802 7.615299 -8.705667 -25.415144 -2.526999 -3.464106 -8.272346 9.239660 7.544363 4.309000 -14.009763 17.032455 -4.639579 -2.584670 0.232935 -55.216564 -28.393511 22.281912 -85.531631 2.243721 27.361851 8.524705 12.647240 -35.677139 2.212703 6.201041 0.507338 56.700565 11.001393 -3.522559 86.355476 -1.442068 30.688377 -8.534408 -12.637552 83.783058 -29.714756 12.362111 7.940655 59.446690 -2.807940 -8.099428 -10.909190 -19.089733 -7.841527 -21.398327 2.264339 -0.394642 43.998280 4.342620 6.526653 -24.092482 4.372129 4.308176 
-4.315437 50.346394 14.581948 2.864226 4.954398 -96.785652 42.518551 7.727097 -9.019787 -25.941275 -2.106424 -3.538131 -6.219554 9.301002 7.774340 3.129225 -14.369009 17.283993 -4.639579 -2.584670 0.232935 -54.191299 -29.171850 22.747229 -85.698517 1.999087 27.695515 8.524705 12.647240 -35.784557 2.212703 6.201041 0.507338 56.386307 10.310814 -2.884012 86.346870 -1.420092 30.640751 -8.534408 -12.637552 84.046738 -30.023207 12.613523 7.962727 60.336620 -2.700408 -8.169332 -12.781599 -18.689266 -8.282355 -21.400345 2.274785 -1.102825 42.734432 4.450435 6.419482 -23.181185 4.662760 4.437824 
-4.136947 50.563969 14.538249 3.051261 5.344959 -96.371841 42.960819 7.900274 -9.097158 -25.638597 -1.828783 -3.618919 -7.555228 9.557955 7.655169 3.943359 -14.466825 17.265148 -4.639579 -2.584670 0.232935 -52.554878 -32.147770 22.748070 -85.746468 1.928326 27.808992 8.524705 12.647240 -35.901741 2.212703 6.201041 0.507338 56.421600 11.681583 -3.143648 86.308914 -1.349615 30.420074 -8.534408 -12.637552 83.939308 -29.879963 12.830528 8.168987 61.372089 -2.592038 -8.267998 -15.047873 -17.511017 -8.491963 -21.252842 2.323378 -1.637256 41.372444 4.567522 6.236514 -22.059322 4.934480 4.559041 
-3.979693 50.794159 14.520707 3.043884 5.712888 -95.903824 43.064316 7.978745 -9.404326 -25.482229 -1.591264 -3.719848 -7.920675 9.706767 7.613944 4.238632 -14.461066 17.245644 -4.639579 -2.584670 0.232935 -50.889740 -34.809952 22.702679 -85.766098 1.895754 27.850739 8.524705 12.647240 -36.243542 2.212703 6.201041 0.507338 56.504841 12.683208 -3.371854 86.271652 -1.295643 30.168755 -8.534408 -12.637552 83.665878 -29.241327 12.681347 8.469933 62.485718 -2.446899 -8.359384 -16.453703 -15.863635 -8.268555 -21.056225 2.078980 -2.267215 40.008785 4.665467 6.093391 -21.158527 4.841333 4.511453 
-3.813821 51.013577 14.513322 3.050958 6.220899 -95.534798 42.539558 8.011176 -9.812968 -25.871899 -1.320640 -3.802424 -6.244390 9.606337 7.844730 3.366848 -14.301260 17.480099 -4.639579 -2.584670 0.232935 -49.488720 -36.249332 22.737686 -85.808617 1.833162 27.963331 8.524705 12.647240 -36.595100 2.212703 6.201041 0.507338 56.420780 12.434496 -3.064766 86.250351 -1.275428 30.003542 -8.534408 -12.637552 83.538925 -28.495859 12.597772 8.909954 63.657730 -2.323407 -8.445938 -16.687628 -14.246801 -7.707743 -21.111937 1.903564 -2.831749 38.703571 4.769078 5.907791 -20.456232 4.758551 4.484311 
-3.623946 51.199146 14.500397 3.107555 6.918933 -95.252792 42.421871 8.123739 -9.881927 -25.774414 -1.112187 -3.850718 -6.819839 9.521818 7.877359 3.438328 -13.950774 17.632866 -4.639579 -2.584670 0.232935 -47.903328 -38.726269 22.378498 -85.848091 1.768875 28.066256 8.524705 12.647240 -36.634167 2.212703 6.201041 0.507338 56.345928 12.929431 -2.972382 86.243431 -1.272273 29.954689 -8.534408 -12.637552 83.568222 -27.840004 12.606318 9.423161 64.800117 -2.192469 -8.523546 -16.097158 -12.658340 -7.017054 -21.458712 1.864540 -3.293414 37.564625 4.850989 5.775911 -19.745092 5.167853 4.626623 
-3.426684 51.339169 14.496397 3.128909 7.747590 -94.814331 41.948921 8.288941 -10.031334 -25.852352 -0.916336 -3.905253 -6.577337 9.637871 7.933558 2.908073 -14.119424 17.800634 -4.639579 -2.584670 0.232935 -46.557255 -40.733215 22.154352 -85.878471 1.721597 28.158024 8.524705 12.647240 -37.034561 2.212703 6.201041 0.507338 56.171513 12.734844 -2.682692 86.253746 -1.277310 30.032734 -8.534408 -12.637552 83.870956 -27.200535 12.485921 9.792667 65.775589 -2.075455 -8.603957 -14.922823 -10.707633 -6.167051 -22.067554 1.737960 -3.882277 36.602520 4.919782 5.674543 -19.009169 5.564835 4.754309 
-3.249426 51.448414 14.512707 3.189088 8.500418 -94.409981 41.489075 8.525329 -10.176422 -25.978924 -0.773494 -3.965257 -6.090070 9.758201 8.021673 2.141860 -14.426282 18.019148 -4.639579 -2.584670 0.232935 -45.282661 -42.580559 21.928307 -85.888168 1.705698 28.188623 8.524705 12.647240 -37.981823 2.212703 6.201041 0.507338 55.940849 12.684122 -2.421141 86.257484 -1.279176 30.061930 -8.534408 -12.637552 84.085793 -26.185179 12.261249 10.167075 66.399574 -1.988813 -8.655485 -13.575113 -8.555131 -5.333691 -22.669025 1.571656 -4.589421 35.848820 4.974273 5.565834 -18.197941 5.972283 4.864960 
-3.095556 51.539196 14.548406 3.187916 8.988892 -94.069412 41.290634 8.755065 -10.328534 -26.047029 -0.636536 -4.025706 -5.785993 9.728431 8.095436 1.365850 -14.562220 18.241507 -4.639579 -2.584670 0.232935 -44.012108 -44.488873 21.601480 -85.887909 1.705639 28.188635 8.524705 12.647240 -39.075569 2.212703 6.201041 0.507338 55.645252 12.943078 -2.270081 86.255333 -1.277929 30.042461 -8.534408 -12.637552 84.134628 -24.613651 11.871027 10.556370 66.536400 -1.978197 -8.659245 -12.421432 -6.445938 -4.643991 -23.131418 1.308415 -5.337079 35.402477 4.997394 5.524138 -17.554237 6.374642 4.978997 
-2.928145 51.586281 14.595798 3.074314 9.434670 -93.727570 41.591537 8.916522 -10.134640 -25.647738 -0.558959 -4.024224 -7.456444 9.600881 7.951070 1.519657 -14.420310 18.198858 -4.639579 -2.584670 0.232935 -42.646954 -47.482239 20.970854 -85.868111 1.737324 28.127447 8.524705 12.647240 -40.091198 2.212703 6.201041 0.507338 55.425705 13.968606 -2.846055 86.257996 -1.279168 30.061920 -8.534408 -12.637552 84.271347 -22.850327 11.229580 10.791416 66.029282 -2.037354 -8.619019 -11.479058 -4.631665 -4.134154 -23.715565 0.898021 -5.984210 35.192295 5.032640 5.476894 -17.199776 6.509388 5.005384 
-2.731499 51.572124 14.657344 2.855336 9.976422 -93.413269 41.478863 8.977349 -10.317345 -25.657389 -0.456483 -4.081406 -7.535931 9.695628 8.054032 0.851960 -14.609722 18.552299 -4.639579 -2.584670 0.232935 -41.665760 -49.277836 20.351873 -85.854553 1.762290 28.096270 8.524705 12.647240 -41.165421 2.212703 6.201041 0.507338 55.217915 14.222228 -2.970693 86.268913 -1.293797 30.139330 -8.534408 -12.637552 84.583839 -21.081951 10.369726 10.864894 64.848419 -2.182712 -8.540624 -10.836425 -3.119990 -3.776347 -24.649946 0.429652 -6.373763 35.233772 5.013433 5.484408 -17.041523 6.631923 5.028722 
